<svg width="62" height="72" viewBox="0 0 62 72" fill="none" xmlns="http://www.w3.org/2000/svg">
<path d="M30.9005 46.9895C42.202 46.9895 51.3637 37.8278 51.3637 26.5263C51.3637 15.2248 42.202 6.06316 30.9005 6.06316V46.9895Z" fill="#FFE39E"/>
<path d="M10.4373 26.5263C10.4373 37.8278 19.599 46.9895 30.9005 46.9895V6.06316C19.599 6.06316 10.4373 15.2248 10.4373 26.5263Z" fill="#FFD59B"/>
<path d="M18.4516 72L30.9005 50.4L25.984 52.248C25.619 52.3852 25.2076 52.2977 24.93 52.0239L21.4578 48.5999C21.2853 48.4298 21.0569 48.3281 20.815 48.3137L15.9471 48.0245C15.5579 48.0014 15.2176 47.7542 15.0754 47.3911L13.296 42.8509C13.2076 42.6253 13.0403 42.4395 12.8252 42.328L12.1546 41.9804L0.730011 61.7684L14.1382 59.0079L18.4516 72Z" fill="#BDDCEB"/>
<path d="M30.9005 50.4L43.5512 72L47.8646 59.0079L61.2728 61.7684L49.8017 41.8999L48.9758 42.328C48.7607 42.4395 48.5934 42.6253 48.505 42.8509L46.7256 47.3911C46.5834 47.7542 46.2431 48.0014 45.8539 48.0245L40.986 48.3137C40.7441 48.3281 40.5157 48.4298 40.3432 48.5999L36.871 52.0239C36.5934 52.2977 36.182 52.3852 35.817 52.248L30.9005 50.4Z" fill="#BDDCEB"/>
<path fill-rule="evenodd" clip-rule="evenodd" d="M36.2358 3.11813C35.9962 3.15436 35.7516 3.10237 35.5475 2.97182L31.4393 0.344552C31.1108 0.134492 30.6902 0.134492 30.3617 0.344552L26.2535 2.97182C26.0494 3.10237 25.8048 3.15436 25.5652 3.11813L20.7436 2.38895C20.3581 2.33065 19.9738 2.50172 19.7592 2.82722L17.0748 6.89831C16.9414 7.1006 16.7391 7.24757 16.5055 7.31192L11.8042 8.60692C11.4283 8.71046 11.1468 9.02303 11.0831 9.40768L10.2867 14.2187C10.2471 14.4577 10.1221 14.6743 9.93482 14.8281L6.16664 17.9233C5.86536 18.1708 5.73538 18.5708 5.83366 18.9481L7.06284 23.6671C7.12392 23.9016 7.09778 24.1503 6.98929 24.3669L4.80583 28.7273C4.63126 29.0759 4.67522 29.4942 4.91847 29.7989L7.96077 33.61C8.11194 33.7993 8.18921 34.0371 8.17822 34.2792L7.95703 39.1506C7.93935 39.5401 8.14965 39.9044 8.4958 40.0838L12.1546 41.9804L12.8252 42.328C13.0403 42.4395 13.2076 42.6253 13.296 42.8509L15.0754 47.3911C15.2176 47.7542 15.5579 48.0014 15.9471 48.0245L20.815 48.3137C21.0569 48.3281 21.2853 48.4298 21.4578 48.5999L24.93 52.0239C25.2076 52.2977 25.619 52.3852 25.984 52.248L30.9005 50.4L35.817 52.248C36.182 52.3852 36.5934 52.2977 36.871 52.0239L40.3432 48.5999C40.5157 48.4298 40.7441 48.3281 40.986 48.3137L45.8539 48.0245C46.2431 48.0014 46.5834 47.7542 46.7256 47.3911L48.505 42.8509C48.5934 42.6253 48.7607 42.4395 48.9758 42.328L49.8017 41.8999L53.3052 40.0838C53.6513 39.9044 53.8616 39.5401 53.844 39.1506L53.6228 34.2792C53.6118 34.0371 53.689 33.7993 53.8402 33.61L56.8825 29.7989C57.1258 29.4942 57.1697 29.0759 56.9951 28.7273L54.8117 24.3669C54.7032 24.1503 54.6771 23.9016 54.7381 23.6671L55.9673 18.9481C56.0656 18.5708 55.9356 18.1708 55.6343 17.9233L51.8662 14.8281C51.6789 14.6743 51.5539 14.4577 51.5143 14.2187L50.7178 9.40768C50.6542 9.02303 50.3727 8.71046 49.9968 8.60692L45.2955 7.31192C45.0619 7.24757 44.8596 7.1006 44.7262 6.89831L42.0418 2.82722C41.8271 2.50172 41.4429 2.33065 41.0574 2.38895L36.2358 3.11813ZM51.3637 26.5263C51.3637 37.8278 42.202 46.9895 30.9005 46.9895C19.599 46.9895 10.4373 37.8278 10.4373 26.5263C10.4373 15.2248 19.599 6.06316 30.9005 6.06316C42.202 6.06316 51.3637 15.2248 51.3637 26.5263Z" fill="#CC9F7A"/>
<path d="M23.3059 34.8375C22.4668 34.8375 21.6988 34.7166 21.0019 34.4748C20.3192 34.233 19.7432 33.8846 19.2739 33.4295C18.8045 32.9743 18.4632 32.4481 18.2499 31.8508L19.5299 30.3148C19.6294 30.6846 19.8357 31.0543 20.1485 31.4241C20.4757 31.7939 20.8952 32.0926 21.4072 32.3201C21.9334 32.5477 22.545 32.6615 23.2419 32.6615C23.8534 32.6615 24.3939 32.569 24.8632 32.3841C25.3468 32.185 25.7308 31.9077 26.0152 31.5521C26.2997 31.1966 26.4419 30.777 26.4419 30.2935C26.4419 29.753 26.2712 29.2979 25.9299 28.9281C25.5885 28.5583 25.0979 28.281 24.4579 28.0961C23.8179 27.9112 23.0499 27.8188 22.1539 27.8188H21.4285V25.9415H22.1539C23.3343 25.9415 24.273 25.7495 24.9699 25.3655C25.681 24.9815 26.0365 24.4126 26.0365 23.6588C26.0365 23.1895 25.9085 22.7841 25.6525 22.4428C25.3965 22.0872 25.0623 21.8241 24.6499 21.6535C24.2374 21.4686 23.7823 21.3761 23.2845 21.3761C22.4739 21.3761 21.7699 21.561 21.1725 21.9308C20.5752 22.3006 20.1414 22.7557 19.8712 23.2961L18.3352 21.6108C18.6339 21.1415 19.0463 20.7361 19.5725 20.3948C20.0988 20.0535 20.689 19.7903 21.3432 19.6055C22.0117 19.4206 22.6872 19.3281 23.3699 19.3281C24.3654 19.3281 25.2543 19.5059 26.0365 19.8615C26.8188 20.217 27.4303 20.7077 27.8712 21.3335C28.3121 21.945 28.5325 22.6419 28.5325 23.4241C28.5325 23.993 28.4117 24.505 28.1699 24.9601C27.9423 25.4152 27.6081 25.7992 27.1672 26.1121C26.7405 26.4108 26.2285 26.6312 25.6312 26.7735C26.2712 26.8872 26.833 27.129 27.3165 27.4988C27.8143 27.8686 28.1912 28.3237 28.4472 28.8641C28.7174 29.4046 28.8525 29.9948 28.8525 30.6348C28.8525 31.5166 28.5965 32.2703 28.0845 32.8961C27.5868 33.5219 26.9183 34.0055 26.0792 34.3468C25.2401 34.6739 24.3157 34.8375 23.3059 34.8375Z" fill="#8F664B"/>
<path d="M37.2997 34.8801C36.233 34.8517 35.2944 34.6028 34.4837 34.1335C33.673 33.6641 32.9975 33.0526 32.457 32.2988C31.9166 31.5308 31.5042 30.7059 31.2197 29.8241C30.9495 28.9281 30.8144 28.0535 30.8144 27.2001C30.8144 26.2899 30.9637 25.3797 31.2624 24.4695C31.561 23.5592 31.9948 22.7343 32.5637 21.9948C33.1326 21.241 33.8153 20.6437 34.6117 20.2028C35.4082 19.7477 36.3042 19.5201 37.2997 19.5201C38.3664 19.5201 39.2979 19.7619 40.0944 20.2455C40.905 20.729 41.5806 21.3548 42.121 22.1228C42.6615 22.8908 43.0668 23.7228 43.337 24.6188C43.6215 25.5148 43.7637 26.3752 43.7637 27.2001C43.7637 28.1246 43.6144 29.0419 43.3157 29.9521C43.017 30.8481 42.5833 31.6659 42.0144 32.4055C41.4455 33.145 40.7628 33.7423 39.9664 34.1975C39.1842 34.6383 38.2953 34.8659 37.2997 34.8801ZM33.2464 27.2001C33.2748 27.8543 33.3673 28.5086 33.5237 29.1628C33.6944 29.8028 33.9504 30.393 34.2917 30.9335C34.633 31.4739 35.0526 31.9077 35.5504 32.2348C36.0482 32.5619 36.6313 32.7255 37.2997 32.7255C37.9966 32.7255 38.5939 32.5548 39.0917 32.2135C39.6037 31.8579 40.0233 31.4028 40.3504 30.8481C40.6775 30.2792 40.9193 29.6748 41.0757 29.0348C41.2464 28.3948 41.3317 27.7832 41.3317 27.2001C41.3317 26.5459 41.2393 25.8988 41.0544 25.2588C40.8837 24.6046 40.6277 24.0072 40.2864 23.4668C39.945 22.9263 39.5255 22.4926 39.0277 22.1655C38.5299 21.8383 37.9539 21.6748 37.2997 21.6748C36.6028 21.6748 35.9984 21.8526 35.4864 22.2081C34.9744 22.5495 34.5548 23.0046 34.2277 23.5735C33.9006 24.1281 33.6517 24.7255 33.481 25.3655C33.3246 26.0055 33.2464 26.617 33.2464 27.2001Z" fill="#8F664B"/>
</svg>
