<svg width="54" height="72" viewBox="0 0 54 72" fill="none" xmlns="http://www.w3.org/2000/svg">
<path d="M6.68315 26.5263C6.68315 37.8278 15.8448 46.9895 27.1463 46.9895V6.06316C15.8448 6.06316 6.68315 15.2248 6.68315 26.5263Z" fill="#FFD59B"/>
<path d="M27.1463 46.9895C38.4478 46.9895 47.6095 37.8278 47.6095 26.5263C47.6095 15.2248 38.4478 6.06316 27.1463 6.06316V46.9895Z" fill="#FFE39E"/>
<path fill-rule="evenodd" clip-rule="evenodd" d="M32.3363 3.11813C32.0967 3.15436 31.8521 3.10237 31.648 2.97182L27.5398 0.344551C27.2113 0.134492 26.7907 0.134492 26.4622 0.344552L22.354 2.97182C22.1499 3.10237 21.9053 3.15436 21.6657 3.11813L16.8441 2.38895C16.4586 2.33065 16.0744 2.50172 15.8597 2.82722L13.1753 6.89831C13.0419 7.10059 12.8396 7.24757 12.606 7.31192L7.90466 8.60692C7.52877 8.71045 7.24733 9.02302 7.18365 9.40768L6.38717 14.2187C6.3476 14.4577 6.22257 14.6743 6.03533 14.8281L2.26715 17.9233C1.96587 18.1708 1.83589 18.5708 1.93417 18.9481L3.16335 23.6671C3.22443 23.9016 3.19829 24.1503 3.0898 24.3669L0.906343 28.7272C0.731768 29.0759 0.775733 29.4942 1.01898 29.7989L4.06128 33.6099C4.21245 33.7993 4.28972 34.0371 4.27873 34.2792L4.05754 39.1506C4.03986 39.5401 4.25016 39.9044 4.59631 40.0838L8.92569 42.328C9.14081 42.4395 9.30813 42.6253 9.39654 42.8509L11.1759 47.3911C11.3181 47.7541 11.6584 48.0014 12.0476 48.0245L15.02 48.2011L16.9155 48.3137C17.1574 48.3281 17.3858 48.4298 17.5583 48.5999L21.039 52.0323C21.3122 52.3018 21.7156 52.3911 22.077 52.2622L26.8014 50.5776C27.0241 50.4982 27.2678 50.5003 27.4891 50.5835L31.9175 52.248C32.2825 52.3851 32.6939 52.2977 32.9715 52.0239L36.4437 48.5999C36.6162 48.4298 36.8446 48.3281 37.0865 48.3137L39.2726 48.1838L41.9544 48.0245C42.3436 48.0014 42.6839 47.7541 42.8261 47.3911L44.6055 42.8509C44.6939 42.6253 44.8612 42.4395 45.0763 42.328L49.4057 40.0838C49.7518 39.9044 49.9621 39.5401 49.9445 39.1506L49.7233 34.2792C49.7123 34.0371 49.7896 33.7993 49.9407 33.6099L52.983 29.7989C53.2263 29.4942 53.2702 29.0759 53.0957 28.7272L50.9122 24.3669C50.8037 24.1503 50.7776 23.9016 50.8386 23.6671L52.0678 18.9481C52.1661 18.5708 52.0361 18.1708 51.7348 17.9233L47.9667 14.8281C47.7794 14.6743 47.6544 14.4577 47.6148 14.2187L46.8183 9.40768C46.7547 9.02302 46.4732 8.71045 46.0973 8.60692L41.396 7.31192C41.1624 7.24757 40.9601 7.10059 40.8267 6.89831L38.1423 2.82722C37.9276 2.50172 37.5434 2.33065 37.1579 2.38895L32.3363 3.11813ZM47.6095 26.5263C47.6095 37.8278 38.4478 46.9895 27.1463 46.9895C15.8448 46.9895 6.68315 37.8278 6.68315 26.5263C6.68315 15.2248 15.8448 6.06316 27.1463 6.06316C38.4478 6.06316 47.6095 15.2248 47.6095 26.5263Z" fill="#CC9F7A"/>
<path d="M37.0865 48.3137C36.8446 48.3281 36.6162 48.4298 36.4437 48.5999L32.9715 52.0239C32.6939 52.2977 32.2825 52.3851 31.9175 52.248L27.4891 50.5835C27.2678 50.5003 27.0241 50.4982 26.8014 50.5776L22.077 52.2622C21.7156 52.3911 21.3122 52.3018 21.039 52.0323L17.5583 48.5999C17.3858 48.4298 17.1574 48.3281 16.9155 48.3137L15.02 48.2011V72L27.1463 62.9053L39.2726 72V48.1838L37.0865 48.3137Z" fill="#BDDCEB"/>
<path d="M25.404 32.5551V34.6671H17.3613V32.5551H20.284V21.7604C20.1702 21.9311 19.9782 22.1231 19.708 22.3364C19.452 22.5355 19.1604 22.7346 18.8333 22.9338C18.5062 23.1186 18.1649 23.2751 17.8093 23.4031C17.468 23.5311 17.1551 23.5951 16.8706 23.5951V21.4191C17.2546 21.4191 17.6386 21.3195 18.0226 21.1204C18.4209 20.9213 18.7906 20.6938 19.132 20.4378C19.4733 20.1675 19.7435 19.9258 19.9426 19.7124C20.156 19.4991 20.2697 19.3853 20.284 19.3711H22.6946V32.5551H25.404Z" fill="#8F664B"/>
<path d="M31.5873 34.8804C30.4922 34.8804 29.5109 34.6386 28.6433 34.1551C27.79 33.6573 27.1286 32.9818 26.6593 32.1284L28.0673 30.7844C28.4655 31.396 28.9775 31.8866 29.6033 32.2564C30.2291 32.612 30.8975 32.7898 31.6086 32.7898C32.1917 32.7898 32.7109 32.6689 33.166 32.4271C33.6211 32.1711 33.9766 31.8226 34.2326 31.3818C34.5029 30.9409 34.638 30.4289 34.638 29.8458C34.638 29.2769 34.51 28.7791 34.254 28.3524C34.0122 27.9115 33.6709 27.5702 33.23 27.3284C32.8033 27.0866 32.3197 26.9658 31.7793 26.9658C31.2389 26.9658 30.7269 27.0866 30.2433 27.3284C29.774 27.5702 29.3971 27.9115 29.1126 28.3524H27.022L28.75 19.5204H36.1526V21.6751H30.4566L29.6886 25.7924C29.9446 25.5364 30.2717 25.3302 30.67 25.1738C31.0824 25.0173 31.5517 24.9391 32.078 24.9391C33.0309 24.9391 33.8771 25.1453 34.6166 25.5578C35.3704 25.9702 35.9606 26.5391 36.3873 27.2644C36.8282 27.9898 37.0486 28.8289 37.0486 29.7818C37.0486 30.7915 36.8069 31.6804 36.3233 32.4484C35.8398 33.2022 35.1855 33.7995 34.3606 34.2404C33.55 34.6671 32.6255 34.8804 31.5873 34.8804Z" fill="#8F664B"/>
</svg>
