<svg width="108" height="108" viewBox="0 0 108 108" fill="none" xmlns="http://www.w3.org/2000/svg">
<g clip-path="url(#clip0_1271_31892)">
<path d="M0 0L108 108V54L54 0H0Z" fill="#C7003C"/>
<path d="M60.1874 25.9484C59.8112 26.3246 59.3889 26.5489 58.9203 26.6215C58.4583 26.7007 57.9897 26.6479 57.5146 26.4631C57.0394 26.2784 56.6038 25.988 56.2078 25.592L52.8519 22.2361L59.8805 15.2074L63.5038 18.8306C63.8337 19.1606 64.0284 19.5335 64.0878 19.9493C64.1604 20.3651 64.1208 20.7742 63.969 21.1768C63.8304 21.5794 63.6126 21.9292 63.3157 22.2262C62.9725 22.5693 62.56 22.8036 62.0782 22.929C61.6096 23.0544 61.1411 23.028 60.6725 22.8498C60.9563 23.3712 61.0553 23.9058 60.9695 24.4535C60.8969 25.0013 60.6362 25.4996 60.1874 25.9484ZM59.2569 24.602C59.4549 24.4041 59.5902 24.183 59.6627 23.9388C59.7485 23.6946 59.7683 23.4504 59.7221 23.2062C59.6891 22.962 59.577 22.7442 59.3856 22.5528L57.0691 20.2364L54.9209 22.3846L57.1681 24.6317C57.3661 24.8297 57.5872 24.9584 57.8313 25.0178C58.0887 25.0772 58.3395 25.0706 58.5837 24.998C58.8411 24.9254 59.0655 24.7934 59.2569 24.602ZM60.029 17.2764L57.96 19.3454L59.9993 21.3847C60.1841 21.5695 60.392 21.6916 60.623 21.751C60.8606 21.8038 61.0982 21.7972 61.3358 21.7312C61.58 21.6586 61.801 21.5233 61.999 21.3253C62.2036 21.1207 62.3422 20.9029 62.4148 20.6719C62.494 20.4344 62.5072 20.2034 62.4544 19.979C62.4148 19.7546 62.3059 19.5533 62.1277 19.3751L60.029 17.2764ZM59.3935 28.7777L64.571 23.6003L65.6599 24.6892L63.9572 26.3919L64.9372 27.372C65.551 27.9857 65.8645 28.6094 65.8777 29.243C65.8909 29.8765 65.6434 30.4474 65.1352 30.9556C64.7921 31.2988 64.4159 31.5364 64.0067 31.6683C63.5975 31.8003 63.1817 31.8069 62.7594 31.6881C62.3436 31.576 61.9377 31.3219 61.5417 30.9259L59.3935 28.7777ZM61.3239 29.0252L62.2149 29.9161C62.4327 30.1339 62.6472 30.2692 62.8584 30.322C63.0761 30.3682 63.284 30.3517 63.482 30.2725C63.6932 30.1933 63.8813 30.0712 64.0463 29.9062C64.2113 29.7412 64.3301 29.5631 64.4027 29.3717C64.4819 29.1737 64.4918 28.9658 64.4324 28.748C64.3862 28.5302 64.2509 28.3091 64.0265 28.0847L63.1454 27.2037L61.3239 29.0252ZM64.2047 33.5888L69.3722 28.4213L70.4612 29.5103L65.2936 34.6778L64.2047 33.5888ZM69.011 38.5932C68.1465 37.7286 67.7505 36.8113 67.8231 35.8411C67.8957 34.871 68.4171 33.9008 69.3872 32.9307C70.0208 32.2971 70.6082 31.8153 71.1493 31.4854C71.7037 31.1554 72.2284 30.9541 72.7234 30.8815C73.2249 30.8155 73.7232 30.8518 74.2182 30.9904C74.7264 31.129 75.2477 31.3534 75.7823 31.6636L78.6037 33.2574L77.7325 34.2077L74.9507 32.6535C74.502 32.4159 74.0697 32.2608 73.6539 32.1882C73.2447 32.1222 72.8322 32.1585 72.4165 32.2971C72.0073 32.4291 71.5717 32.6799 71.1097 33.0495C71.6311 32.8977 72.1591 32.8977 72.6937 33.0495C73.2282 33.2013 73.7298 33.5115 74.1984 33.98C74.6802 34.4618 74.9936 34.9799 75.1388 35.5343C75.2906 36.082 75.284 36.6298 75.119 37.1776C74.954 37.7253 74.6406 38.2302 74.1786 38.6922C73.677 39.1938 73.1325 39.5337 72.5452 39.7118C71.971 39.89 71.377 39.89 70.7633 39.7118C70.1627 39.5337 69.5786 39.1608 69.011 38.5932ZM69.9416 37.6626C70.4234 38.1444 70.9381 38.3754 71.4859 38.3556C72.0403 38.3424 72.5518 38.1015 73.0203 37.6329C73.4691 37.1842 73.7001 36.6826 73.7133 36.1282C73.7397 35.5739 73.512 35.0558 73.0302 34.574C72.7465 34.2902 72.4264 34.0955 72.07 33.9899C71.7202 33.8777 71.3638 33.8711 71.0008 33.9701C70.6445 34.0625 70.3046 34.2704 69.9812 34.5938C69.6776 34.8974 69.4664 35.2274 69.3476 35.5838C69.2354 35.9335 69.2255 36.2866 69.3179 36.643C69.4103 36.9994 69.6182 37.3393 69.9416 37.6626ZM74.9524 44.5345C74.5432 44.1253 74.2462 43.6898 74.0614 43.2278C73.8832 42.7592 73.8007 42.2807 73.8139 41.7924C73.8337 41.3106 73.9393 40.8486 74.1307 40.4064C74.3287 39.9577 74.6092 39.5518 74.9722 39.1888C75.3351 38.8258 75.741 38.5453 76.1898 38.3473C76.6386 38.1493 77.1006 38.0438 77.5757 38.0306C78.0641 38.0174 78.5393 38.1031 79.0013 38.2879C79.4764 38.4727 79.9153 38.7664 80.3179 39.169C80.7205 39.5716 81.0109 40.0072 81.189 40.4757C81.3804 40.9443 81.4662 41.4195 81.4464 41.9013C81.4398 42.383 81.3375 42.8483 81.1395 43.2971C80.9416 43.7459 80.6611 44.1517 80.2981 44.5147C79.9351 44.8777 79.5292 45.1582 79.0805 45.3562C78.6383 45.5476 78.173 45.6499 77.6846 45.6631C77.2028 45.6829 76.7244 45.6004 76.2492 45.4156C75.7872 45.2308 75.3549 44.9371 74.9524 44.5345ZM76.0809 40.3173C75.7509 40.6473 75.5232 41.0136 75.3978 41.4162C75.2724 41.8188 75.2493 42.2114 75.3285 42.5942C75.4077 42.977 75.5925 43.3136 75.8829 43.604C76.1667 43.8878 76.5 44.0692 76.8828 44.1484C77.2787 44.2276 77.678 44.2045 78.0806 44.0791C78.4898 43.9471 78.8561 43.7195 79.1794 43.3961C79.5094 43.0661 79.7371 42.6998 79.8625 42.2972C79.9879 41.8947 80.0077 41.4987 79.9219 41.1093C79.8493 40.7199 79.6711 40.3833 79.3873 40.0995C79.097 39.8092 78.7571 39.6277 78.3677 39.5551C77.9783 39.4825 77.5823 39.5089 77.1798 39.6343C76.7838 39.7531 76.4175 39.9808 76.0809 40.3173ZM81.5213 51.1035C81.1055 50.6877 80.8382 50.2224 80.7194 49.7076C80.6006 49.1929 80.6072 48.6847 80.7392 48.1831L77.6605 51.2618L76.5715 50.1729L83.8576 42.8869L84.8178 43.8471L83.8873 44.7777C84.3955 44.6655 84.9003 44.6754 85.4019 44.8074C85.9035 44.9394 86.349 45.2001 86.7383 45.5894C87.0947 45.9458 87.3488 46.3451 87.5006 46.7873C87.659 47.2229 87.7217 47.6749 87.6887 48.1435C87.6557 48.6121 87.5369 49.0675 87.3323 49.5096C87.1409 49.9518 86.867 50.3511 86.5106 50.7075C86.0157 51.2024 85.4646 51.5555 84.8574 51.7667C84.2569 51.9845 83.6596 52.0406 83.0656 51.935C82.4848 51.8294 81.9701 51.5522 81.5213 51.1035ZM82.0955 49.8165C82.3265 50.0475 82.5838 50.2059 82.8676 50.2917C83.158 50.3841 83.4517 50.4138 83.7487 50.3808C84.0523 50.3544 84.346 50.2719 84.6297 50.1333C84.9135 49.9947 85.1676 49.8132 85.392 49.5888C85.6296 49.3512 85.8144 49.0873 85.9464 48.7969C86.0784 48.5065 86.1477 48.2062 86.1543 47.896C86.1675 47.5924 86.1213 47.2954 86.0157 47.0051C85.9167 46.7213 85.7517 46.4639 85.5207 46.2329C85.3821 46.0943 85.2105 45.9755 85.0059 45.8765C84.8013 45.7775 84.5868 45.7082 84.3625 45.6686C84.1381 45.629 83.9137 45.6224 83.6893 45.6488C83.4649 45.6752 83.2636 45.7379 83.0854 45.8369L81.7292 47.1932C81.6104 47.4967 81.5411 47.8102 81.5213 48.1336C81.5081 48.4504 81.5477 48.7606 81.6401 49.0642C81.7391 49.3611 81.8909 49.6119 82.0955 49.8165ZM31.5545 19.5073C31.1322 19.9297 30.6471 20.1838 30.0993 20.2696C29.5581 20.362 29.0038 20.3026 28.4362 20.0914C27.8818 19.8802 27.377 19.5469 26.9216 19.0916C26.453 18.623 26.123 18.1082 25.9316 17.5472C25.7468 16.9797 25.7039 16.422 25.8029 15.8742C25.9019 15.3265 26.1593 14.8447 26.5751 14.4289C26.8523 14.1517 27.1625 13.9669 27.5057 13.8745C27.8554 13.7755 28.2019 13.7392 28.5451 13.7656C28.8883 13.792 29.1985 13.858 29.4757 13.9636C29.3833 13.6996 29.3272 13.4257 29.3074 13.142C29.3008 12.8582 29.3404 12.581 29.4262 12.3104C29.5186 12.0464 29.667 11.8121 29.8716 11.6075C30.1752 11.304 30.5085 11.1027 30.8715 11.0037C31.2477 10.9047 31.6271 10.8882 32.0099 10.9542C32.3993 11.0136 32.7656 11.1357 33.1088 11.3205C33.4652 11.5052 33.7753 11.7296 34.0393 11.9936C34.3099 12.2642 34.5343 12.5744 34.7125 12.9242C34.9039 13.274 35.0326 13.6402 35.0986 14.023C35.1712 14.4124 35.1547 14.7919 35.0491 15.1615C34.9567 15.531 34.7587 15.8676 34.4551 16.1712C34.2505 16.3758 34.0096 16.5243 33.7324 16.6167C33.4684 16.7091 33.188 16.7454 32.891 16.7256C32.6006 16.7124 32.3267 16.6563 32.0693 16.5573C32.1881 16.8609 32.2574 17.1876 32.2772 17.5373C32.3036 17.8937 32.2607 18.2402 32.1485 18.5768C32.0363 18.9134 31.8383 19.2236 31.5545 19.5073ZM30.525 18.3392C30.7164 18.1478 30.8451 17.9333 30.9111 17.6957C30.9837 17.4647 31.0002 17.2305 30.9606 16.9929C30.9276 16.7487 30.855 16.5177 30.7428 16.2999C30.6306 16.0821 30.4887 15.8874 30.3171 15.7158C30.0729 15.4716 29.7957 15.2935 29.4856 15.1813C29.1754 15.0691 28.8619 15.0394 28.5451 15.0922C28.2349 15.1384 27.9577 15.2836 27.7135 15.5277C27.5288 15.7125 27.4001 15.9204 27.3275 16.1514C27.2615 16.3758 27.2417 16.6068 27.2681 16.8444C27.3011 17.0886 27.3737 17.3195 27.4859 17.5373C27.6046 17.7617 27.7498 17.9597 27.9214 18.1313C28.159 18.3689 28.4329 18.5438 28.7431 18.656C29.0665 18.7682 29.3833 18.8012 29.6934 18.755C30.0168 18.7088 30.294 18.5702 30.525 18.3392ZM30.9309 12.746C30.7263 12.9506 30.6108 13.1849 30.5844 13.4488C30.558 13.7128 30.6009 13.9735 30.7131 14.2309C30.8253 14.4883 30.9705 14.7061 31.1487 14.8843C31.3335 15.0691 31.5512 15.2143 31.802 15.3199C32.066 15.4254 32.33 15.465 32.594 15.4386C32.8646 15.4188 33.1055 15.3034 33.3167 15.0922C33.508 14.9008 33.6169 14.6797 33.6433 14.4289C33.6763 14.1715 33.6367 13.9141 33.5245 13.6567C33.4256 13.3993 33.2738 13.1684 33.0692 12.9638C32.8646 12.7592 32.6303 12.6041 32.3663 12.4985C32.1089 12.3995 31.8515 12.3665 31.5941 12.3995C31.35 12.4325 31.1289 12.548 30.9309 12.746ZM33.3324 25.5419C32.8506 25.0338 32.5305 24.4827 32.3721 23.8887C32.2137 23.2947 32.184 22.6975 32.283 22.0969C32.3886 21.4897 32.58 20.9156 32.8572 20.3744C33.1476 19.8332 33.4907 19.3646 33.8867 18.9687C34.3091 18.5463 34.8008 18.1932 35.3618 17.9094C35.9227 17.6256 36.5068 17.4441 37.114 17.3649C37.7277 17.2792 38.3217 17.3187 38.8959 17.4837C39.4766 17.6421 39.998 17.9523 40.46 18.4143C40.955 18.9093 41.2751 19.4537 41.4202 20.0477C41.572 20.6483 41.5951 21.2521 41.4895 21.8593C41.3839 22.4665 41.186 23.0407 40.8956 23.5818C40.6118 24.1296 40.2785 24.5949 39.8957 24.9777C39.4667 25.4066 38.9718 25.763 38.4108 26.0468C37.8564 26.324 37.2757 26.5022 36.6685 26.5814C36.0613 26.6606 35.4673 26.621 34.8866 26.4626C34.319 26.3042 33.8009 25.9973 33.3324 25.5419ZM35.0153 20.0972C34.7249 20.414 34.4642 20.7605 34.2332 21.1367C34.0154 21.5128 33.8603 21.9055 33.7679 22.3147C33.6755 22.7239 33.6689 23.1199 33.7481 23.5026C33.8273 23.8854 34.022 24.2319 34.3322 24.5421C34.6556 24.8655 35.012 25.0635 35.4014 25.1361C35.8039 25.2086 36.2098 25.1921 36.619 25.0866C37.0348 24.9744 37.4274 24.8061 37.797 24.5817C38.1732 24.3639 38.4966 24.1197 38.7672 23.8491C39.0708 23.5455 39.3282 23.2023 39.5393 22.8196C39.7637 22.4368 39.9221 22.0408 40.0145 21.6316C40.1069 21.2225 40.1135 20.8265 40.0343 20.4437C39.9551 20.0609 39.7637 19.7177 39.4601 19.4141C39.1368 19.0908 38.7738 18.8928 38.3712 18.8202C37.9752 18.741 37.5693 18.7575 37.1536 18.8697C36.7444 18.9753 36.3517 19.137 35.9755 19.3547C35.6059 19.5791 35.2859 19.8266 35.0153 20.0972ZM42.9974 26.634C42.707 26.3436 42.5057 26.0103 42.3935 25.6341C42.2879 25.2645 42.2714 24.8983 42.344 24.5353C42.4298 24.1723 42.608 23.8555 42.8786 23.5849C43.1558 23.3077 43.4725 23.1295 43.8289 23.0504C44.1985 22.9712 44.5681 22.9844 44.9377 23.0899C45.3138 23.2021 45.6471 23.4034 45.9375 23.6938C46.2279 23.9842 46.4259 24.3142 46.5315 24.6838C46.6371 25.0533 46.647 25.4196 46.5612 25.7826C46.482 26.139 46.3071 26.4525 46.0365 26.7231C45.7659 26.9936 45.4491 27.1718 45.0862 27.2576C44.7232 27.3434 44.3569 27.3335 43.9873 27.2279C43.6177 27.1223 43.2877 26.9244 42.9974 26.634ZM43.5517 26.0598C43.7035 26.2116 43.8784 26.3073 44.0764 26.3469C44.2876 26.3865 44.4955 26.37 44.7001 26.2974C44.9113 26.2314 45.0961 26.1192 45.2544 25.9608C45.426 25.7892 45.5448 25.5978 45.6108 25.3866C45.6768 25.1754 45.6867 24.9676 45.6405 24.763C45.6009 24.565 45.5118 24.3967 45.3732 24.2581C45.2214 24.1063 45.04 24.0106 44.8288 23.971C44.6308 23.9314 44.4262 23.9446 44.215 24.0106C44.0038 24.0766 43.819 24.1888 43.6606 24.3472C43.489 24.5188 43.3702 24.7102 43.3042 24.9214C43.2514 25.1325 43.2415 25.3404 43.2745 25.545C43.3207 25.7496 43.4131 25.9212 43.5517 26.0598ZM42.344 34.5536C42.0536 34.2632 41.8556 33.9332 41.75 33.5636C41.6444 33.194 41.6312 32.8245 41.7104 32.4549C41.7962 32.0919 41.9744 31.7751 42.245 31.5045C42.5156 31.2339 42.8291 31.059 43.1854 30.9798C43.555 30.9007 43.9246 30.9138 44.2942 31.0194C44.6638 31.125 44.9938 31.323 45.2841 31.6134C45.5811 31.9104 45.7824 32.2437 45.888 32.6133C46.0002 32.9762 46.0134 33.3392 45.9276 33.7022C45.8418 34.0652 45.6636 34.382 45.393 34.6526C45.1225 34.9231 44.8057 35.1013 44.4427 35.1871C44.0797 35.2729 43.7134 35.263 43.3438 35.1574C42.9743 35.0518 42.641 34.8505 42.344 34.5536ZM42.9083 33.9893C43.0601 34.1411 43.2382 34.2335 43.4428 34.2665C43.654 34.3061 43.8586 34.2929 44.0566 34.2269C44.2678 34.1609 44.4526 34.0487 44.611 33.8903C44.7826 33.7187 44.9014 33.5273 44.9674 33.3161C45.0334 33.1049 45.0433 32.897 44.9971 32.6925C44.9575 32.4945 44.8651 32.3229 44.7199 32.1777C44.5747 32.0325 44.3965 31.9401 44.1853 31.9005C43.9873 31.8609 43.7827 31.8741 43.5715 31.9401C43.3603 32.0061 43.1755 32.1183 43.0172 32.2767C42.8522 32.4417 42.7367 32.6298 42.6707 32.841C42.6113 33.0587 42.5981 33.2699 42.6311 33.4745C42.6707 33.6725 42.7631 33.8441 42.9083 33.9893ZM38.0674 29.287L44.1457 28.7723L50.1547 27.9902L50.224 28.9504L44.2348 29.4751L38.1169 30.2473L38.0674 29.287ZM47.4708 39.4824L52.6482 34.3049L53.7273 35.384L51.6781 37.4332L52.1928 37.9479L55.7665 37.4233L56.9743 38.631L52.5789 39.2448L52.0146 44.0262L50.7574 42.769L51.2029 38.9181L50.698 38.4132L48.5498 40.5614L47.4708 39.4824ZM52.3806 44.4912L53.3508 43.521C53.5158 43.686 53.7038 43.7949 53.915 43.8477C54.1328 43.8939 54.3869 43.8708 54.6773 43.7784C54.9743 43.6794 55.3274 43.4847 55.7365 43.1944C56.1457 42.904 56.6308 42.4981 57.1918 41.9767L58.8252 40.4819L62.5177 44.1744L57.3403 49.3518L56.2513 48.2629L60.4685 44.0457L58.8252 42.4024L58.1025 43.0855C57.3832 43.752 56.743 44.2668 56.182 44.6298C55.6276 44.9862 55.1261 45.2106 54.6773 45.3029C54.2417 45.3953 53.8325 45.3689 53.4498 45.2237C53.0802 45.0786 52.7238 44.8344 52.3806 44.4912ZM58.6464 50.658L63.8139 45.4904L64.9029 46.5794L61.1905 50.2917L67.5361 49.1928L68.5261 50.1828L63.3486 55.3602L62.2597 54.2713L65.8928 50.6382L59.666 51.6776L58.6464 50.658ZM66.8971 59.1066C66.4945 58.7041 66.1975 58.2685 66.0061 57.7999C65.8279 57.3313 65.7421 56.8561 65.7487 56.3744C65.7619 55.886 65.8609 55.4174 66.0457 54.9686C66.2437 54.5199 66.5242 54.114 66.8872 53.751C67.3755 53.2626 67.9332 52.9293 68.5602 52.7512C69.1937 52.5664 69.8339 52.5532 70.4807 52.7116C71.134 52.8633 71.7313 53.2098 72.2725 53.751C72.8137 54.2922 73.1535 54.8828 73.2921 55.523C73.4439 56.1632 73.4274 56.7934 73.2426 57.4138C73.0578 58.0342 72.7345 58.5754 72.2725 59.0373C72.1933 59.1165 72.1141 59.1891 72.0349 59.2551C71.9623 59.3145 71.8996 59.364 71.8468 59.4036L67.6989 55.2557C67.4151 55.5791 67.2303 55.9289 67.1445 56.3051C67.0719 56.6813 67.0851 57.0508 67.1841 57.4138C67.2897 57.7702 67.4745 58.0804 67.7385 58.3444C68.0289 58.6348 68.3754 58.836 68.778 58.9482C69.1871 59.067 69.5567 59.0538 69.8867 58.9086L70.55 60.1065C70.187 60.2451 69.7877 60.3012 69.3521 60.2748C68.9298 60.2484 68.5041 60.1395 68.0751 59.9481C67.6527 59.7501 67.26 59.4696 66.8971 59.1066ZM68.3919 54.5034L71.5201 57.6316C71.7973 57.3148 71.9722 56.9683 72.0448 56.5922C72.1306 56.216 72.1207 55.8497 72.0151 55.4933C71.9227 55.1369 71.7379 54.8201 71.4607 54.543C71.1901 54.2724 70.8734 54.0876 70.5104 53.9886C70.1606 53.8896 69.7976 53.883 69.4214 53.9688C69.0518 54.048 68.7087 54.2262 68.3919 54.5034ZM70.5374 62.5489L75.7148 57.3715L76.8037 58.4605L74.7447 60.5196L77.1502 62.9251L79.2093 60.866L80.2983 61.955L75.1208 67.1324L74.0319 66.0435L76.2098 63.8656L73.8042 61.46L71.6263 63.6379L70.5374 62.5489ZM77.6621 69.6736L81.8792 65.4565L80.1666 63.7438L81.1269 62.7836L85.651 67.3077L84.6907 68.2679L82.9682 66.5454L78.751 70.7626L77.6621 69.6736ZM83.515 75.7246C83.1058 75.3154 82.8088 74.8798 82.624 74.4178C82.4458 73.9492 82.3633 73.4708 82.3765 72.9824C82.3963 72.5006 82.5019 72.0386 82.6933 71.5965C82.8913 71.1477 83.1718 70.7418 83.5348 70.3788C83.8978 70.0158 84.3036 69.7354 84.7524 69.5374C85.2012 69.3394 85.6632 69.2338 86.1384 69.2206C86.6267 69.2074 87.1019 69.2932 87.5639 69.478C88.0391 69.6628 88.4779 69.9565 88.8805 70.359C89.2831 70.7616 89.5735 71.1972 89.7517 71.6658C89.9431 72.1343 90.0289 72.6095 90.0091 73.0913C90.0025 73.5731 89.9002 74.0383 89.7022 74.4871C89.5042 74.9359 89.2237 75.3418 88.8607 75.7048C88.4977 76.0677 88.0919 76.3482 87.6431 76.5462C87.2009 76.7376 86.7356 76.8399 86.2472 76.8531C85.7655 76.8729 85.287 76.7904 84.8118 76.6056C84.3498 76.4208 83.9176 76.1271 83.515 75.7246ZM84.6435 71.5074C84.3135 71.8374 84.0859 72.2036 83.9605 72.6062C83.8351 73.0088 83.812 73.4015 83.8912 73.7843C83.9704 74.167 84.1552 74.5036 84.4455 74.794C84.7293 75.0778 85.0626 75.2593 85.4454 75.3385C85.8414 75.4177 86.2406 75.3946 86.6432 75.2692C87.0524 75.1372 87.4187 74.9095 87.7421 74.5861C88.0721 74.2561 88.2997 73.8899 88.4251 73.4873C88.5505 73.0847 88.5703 72.6887 88.4845 72.2993C88.4119 71.91 88.2337 71.5734 87.95 71.2896C87.6596 70.9992 87.3197 70.8177 86.9303 70.7451C86.5409 70.6725 86.145 70.6989 85.7424 70.8243C85.3464 70.9431 84.9801 71.1708 84.6435 71.5074ZM87.2428 79.2543L92.4202 74.0769L95.1921 76.8488C95.522 77.1788 95.7299 77.512 95.8157 77.8486C95.9147 78.1852 95.9213 78.502 95.8355 78.799C95.7563 79.0894 95.6045 79.3467 95.3801 79.5711C95.0964 79.8549 94.7796 80.0397 94.4298 80.1255C94.08 80.2113 93.7203 80.1816 93.3508 80.0364C93.5619 80.4192 93.651 80.8119 93.618 81.2144C93.5982 81.617 93.42 81.9866 93.0835 82.3232C92.7799 82.6268 92.4499 82.8116 92.0935 82.8776C91.7437 82.937 91.3808 82.8842 91.0046 82.7192C90.6416 82.5542 90.2819 82.2935 89.9255 81.9371L87.2428 79.2543ZM89.0247 79.5315L90.6482 81.155C90.7868 81.2936 90.9452 81.386 91.1234 81.4322C91.3148 81.4784 91.4995 81.4784 91.6777 81.4322C91.8625 81.3794 92.0209 81.287 92.1529 81.155C92.2981 81.0099 92.3938 80.8482 92.44 80.67C92.4928 80.4984 92.4961 80.3235 92.4499 80.1453C92.4103 79.9737 92.3179 79.8153 92.1727 79.6701L90.5294 78.0268L89.0247 79.5315ZM91.2323 77.3239L92.6974 78.7891C92.836 78.9277 92.9911 79.0168 93.1627 79.0564C93.3409 79.0894 93.519 79.0762 93.6972 79.0168C93.8754 78.9574 94.0305 78.8617 94.1625 78.7297C94.3539 78.5383 94.4562 78.3106 94.4694 78.0466C94.4826 77.7826 94.3869 77.5483 94.1823 77.3437L92.6974 75.8588L91.2323 77.3239Z" fill="white"/>
</g>
<defs>
<clipPath id="clip0_1271_31892">
<rect width="108" height="108" fill="white"/>
</clipPath>
</defs>
</svg>
