<svg width="60" height="72" viewBox="0 0 60 72" fill="none" xmlns="http://www.w3.org/2000/svg">
<path d="M29.1563 39.5339C29.474 39.5151 29.7607 39.7234 29.841 40.0313L30.1722 41.3021L32.9672 41.3021V29.3334L27.3513 29.3335C27.2567 29.3335 27.18 29.4102 27.18 29.5048V39.6511L29.1563 39.5339Z" fill="#BDDCEB"/>
<path d="M35.8007 58.3734L33.9971 53.7694C33.9358 53.6131 33.9358 53.4394 33.9971 53.283L34.8326 51.1502L35.8007 48.6791C35.9168 48.3827 35.8072 48.0457 35.5392 47.8742L33.4678 46.5491L32.9672 46.2289L31.3739 45.2096C31.2324 45.1192 31.1303 44.9786 31.088 44.8161L30.1722 41.3021L29.841 40.0313C29.7607 39.7234 29.474 39.5151 29.1563 39.5339L27.18 39.6511L24.2204 39.8265C24.0527 39.8364 23.8875 39.7828 23.7578 39.6762L20.2943 36.832L19.9365 36.5382C19.6905 36.3362 19.3362 36.3362 19.0902 36.5382L15.2689 39.6762C15.1392 39.7828 14.974 39.8364 14.8063 39.8265L11.5591 39.634L9.87037 39.5339C9.55268 39.5151 9.26597 39.7234 9.18571 40.0313L8.34495 43.2574L7.93871 44.8161C7.89636 44.9786 7.79426 45.1192 7.65281 45.2096L3.48754 47.8742C3.21946 48.0457 3.10994 48.3827 3.22602 48.6791L5.02961 53.283C5.09086 53.4394 5.09086 53.6131 5.02961 53.7694L3.22602 58.3734C3.10994 58.6697 3.21946 59.0067 3.48754 59.1782L7.65281 61.8428C7.79426 61.9333 7.89636 62.0738 7.93871 62.2363L9.18571 67.0211C9.26597 67.329 9.55268 67.5374 9.87037 67.5185L14.8063 67.2259C14.974 67.216 15.1392 67.2697 15.2689 67.3762L19.0902 70.5142C19.3362 70.7162 19.6905 70.7162 19.9365 70.5142L23.7578 67.3762C23.8875 67.2697 24.0527 67.216 24.2204 67.2259L29.1563 67.5185C29.474 67.5374 29.7607 67.329 29.841 67.0211L31.088 62.2363C31.1303 62.0738 31.2324 61.9333 31.3739 61.8428L35.5392 59.1782C35.8072 59.0067 35.9168 58.6697 35.8007 58.3734Z" fill="#C7003C"/>
<path d="M14.0915 3.96046C1.89487 11.5818 -1.81417 27.6474 5.80714 39.844C6.57214 41.0683 7.42223 42.207 8.34495 43.2574L9.18571 40.0313C9.26597 39.7234 9.55268 39.5151 9.87037 39.5339L11.5591 39.634C10.9542 38.9052 10.391 38.1274 9.87524 37.302C3.65786 27.3521 6.68365 14.2459 16.6335 8.02856C26.5834 1.81118 39.6896 4.83697 45.907 14.7869C48.1976 18.4526 49.2336 22.5468 49.1309 26.5671C49.1096 27.4021 49.0392 28.234 48.9206 29.0582C48.4832 32.0999 47.3907 35.0369 45.6955 37.6428C44.0592 40.1583 41.8612 42.3653 39.1487 44.0603C37.3393 45.1909 35.4255 46.0159 33.4678 46.5491L35.5392 47.8742C35.8072 48.0457 35.9168 48.3827 35.8007 48.6791L34.8326 51.1502C36.347 50.7308 37.8395 50.1687 39.2914 49.4596C40.105 49.0623 40.9059 48.6188 41.6907 48.1284C42.4758 47.6378 43.2257 47.1122 43.9397 46.5549C54.3179 38.4548 57.1058 23.6564 49.9751 12.2448C42.3538 0.0481922 26.2881 -3.66085 14.0915 3.96046Z" fill="#B7805C"/>
<path d="M43.3607 55.9737L48.0099 53.0685L43.9397 46.5549C43.2257 47.1122 42.4758 47.6378 41.6907 48.1284C40.9059 48.6188 40.105 49.0623 39.2914 49.4596L39.3661 49.581L43.3607 55.9737Z" fill="#B7805C"/>
<path d="M50.5508 70.0666C51.7541 71.9924 54.2908 72.578 56.2166 71.3747C58.1424 70.1713 58.728 67.6346 57.5246 65.7088L49.1723 52.3422L48.0099 53.0685L43.3607 55.9737L42.1984 56.7L50.5508 70.0666Z" fill="#CC9F7A"/>
<path d="M16.6335 8.02856C6.68365 14.2459 3.65786 27.3521 9.87524 37.302C10.391 38.1274 10.9542 38.9052 11.5591 39.634L14.8063 39.8265C14.974 39.8364 15.1392 39.7828 15.2689 39.6762L19.0902 36.5382C19.3362 36.3362 19.6905 36.3362 19.9365 36.5382L20.2943 36.832L20.2535 30.5333H15.4715C15.2919 30.5333 15.1446 30.391 15.1384 30.2115L15.0659 28.1153C15.064 28.0616 15.0751 28.0091 15.0974 27.9618C15.1191 27.9144 15.1519 27.872 15.194 27.8388L32.5551 14.1361C32.6759 14.0407 32.8216 13.9929 32.9672 13.9927C33.1135 13.9925 33.2598 14.0403 33.3811 14.1361L49.1309 26.5671C49.2336 22.5468 48.1976 18.4526 45.907 14.7869C39.6896 4.83697 26.5834 1.81118 16.6335 8.02856Z" fill="#C3FFFF"/>
<path d="M45.694 30.5333L45.6955 37.6428C47.3907 35.0369 48.4832 32.0999 48.9206 29.0582C49.0392 28.234 49.1096 27.4021 49.1309 26.5671L33.3811 14.1361C33.2598 14.0403 33.1135 13.9925 32.9672 13.9927C32.8216 13.9929 32.6759 14.0407 32.5551 14.1361L15.194 27.8388C15.1519 27.872 15.1191 27.9144 15.0974 27.9618C15.1191 27.9157 15.1514 27.8745 15.1925 27.8421L32.5536 14.1393C32.6748 14.0436 32.8211 13.9958 32.9672 13.996C33.113 13.9961 33.2587 14.0439 33.3796 14.1393L49.1294 26.5703C49.1081 27.4054 49.0377 28.2372 48.9191 29.0614C48.8481 29.5551 48.7599 30.0461 48.6546 30.5333H45.694Z" fill="#C3FFFF"/>
<path d="M45.694 28.5167L33.0734 18.5586C33.0423 18.5341 33.0047 18.5218 32.9672 18.5218V28.5166V29.3334L38.4628 29.3333C38.5574 29.3333 38.6341 29.41 38.6341 29.5047V34.9865V41.1307C38.6341 41.2253 38.5574 41.3021 38.4628 41.3021L32.9672 41.3021V46.2289L33.4678 46.5491C35.4255 46.0159 37.3393 45.1909 39.1487 44.0603C41.8612 42.3653 44.0592 40.1583 45.6955 37.6428L45.694 30.5333V28.5167Z" fill="#FFE39E"/>
<path fill-rule="evenodd" clip-rule="evenodd" d="M20.2405 28.5165L20.2535 30.5333H20.2608L20.2405 28.5165ZM33.0734 18.5586C33.0423 18.5341 33.0047 18.5218 32.9672 18.5218V13.996C33.113 13.9961 33.2587 14.0439 33.3796 14.1393L49.1294 26.5703C49.1081 27.4054 49.0377 28.2372 48.9191 29.0614C48.8481 29.5551 48.7599 30.0461 48.6546 30.5333H45.694V28.5167L33.0734 18.5586Z" fill="#CC9F7A"/>
<path d="M20.2405 28.5165L32.8611 18.5586C32.8922 18.5341 32.9297 18.5218 32.9672 18.5218V13.996C32.8211 13.9958 32.6748 14.0436 32.5536 14.1393L15.1925 27.8421C15.1514 27.8745 15.1191 27.9157 15.0974 27.9618C15.0751 28.0091 15.064 28.0616 15.0659 28.1153L15.1384 30.2115C15.1446 30.391 15.2919 30.5333 15.4715 30.5333H20.2535L20.2405 28.5165Z" fill="#B7805C"/>
<path fill-rule="evenodd" clip-rule="evenodd" d="M32.8611 18.5586L20.2405 28.5165L20.2535 30.5333L20.2943 36.832L23.7578 39.6762C23.8875 39.7828 24.0527 39.8364 24.2204 39.8265L27.18 39.6511V29.5048C27.18 29.4102 27.2567 29.3335 27.3513 29.3335L32.9672 29.3334V28.5166V18.5218C32.9297 18.5218 32.8922 18.5341 32.8611 18.5586ZM32.9672 41.3021V46.2289L31.3739 45.2096C31.2324 45.1192 31.1303 44.9786 31.088 44.8161L30.1722 41.3021L32.9672 41.3021ZM45.694 28.5167L45.6955 37.6428L45.694 30.5333V28.5167Z" fill="#FFD59B"/>
<path d="M38.4628 41.3021C38.5574 41.3021 38.6341 41.2253 38.6341 41.1307V34.9865V29.5047C38.6341 29.41 38.5574 29.3333 38.4628 29.3333L32.9672 29.3334V41.3021L38.4628 41.3021Z" fill="#CDEAF9"/>
<path d="M11.9814 56.4093V57.3333H8.46271V56.4093H9.74138V51.6866C9.6916 51.7613 9.6076 51.8453 9.48938 51.9386C9.37738 52.0257 9.24982 52.1128 9.10671 52.1999C8.9636 52.2808 8.81427 52.3493 8.65871 52.4053C8.50938 52.4613 8.37249 52.4893 8.24805 52.4893V51.5373C8.41605 51.5373 8.58405 51.4937 8.75205 51.4066C8.92627 51.3195 9.08805 51.2199 9.23738 51.1079C9.38671 50.9897 9.50494 50.8839 9.59205 50.7906C9.68538 50.6973 9.73516 50.6475 9.74138 50.6413H10.796V56.4093H11.9814Z" fill="white"/>
<path d="M15.4333 57.4266C14.9666 57.4142 14.5559 57.3053 14.2013 57.0999C13.8466 56.8946 13.551 56.6271 13.3146 56.2973C13.0781 55.9613 12.8977 55.6004 12.7733 55.2146C12.655 54.8226 12.5959 54.4399 12.5959 54.0666C12.5959 53.6684 12.6613 53.2702 12.7919 52.8719C12.9226 52.4737 13.1124 52.1128 13.3613 51.7893C13.6101 51.4595 13.9088 51.1982 14.2573 51.0053C14.6057 50.8062 14.9977 50.7066 15.4333 50.7066C15.8999 50.7066 16.3075 50.8124 16.6559 51.0239C17.0106 51.2355 17.3061 51.5093 17.5426 51.8453C17.779 52.1813 17.9564 52.5453 18.0746 52.9373C18.199 53.3293 18.2613 53.7057 18.2613 54.0666C18.2613 54.4711 18.1959 54.8724 18.0653 55.2706C17.9346 55.6626 17.7448 56.0204 17.4959 56.3439C17.247 56.6675 16.9484 56.9288 16.5999 57.1279C16.2577 57.3208 15.8688 57.4204 15.4333 57.4266ZM13.6599 54.0666C13.6724 54.3528 13.7128 54.6391 13.7813 54.9253C13.8559 55.2053 13.9679 55.4635 14.1173 55.6999C14.2666 55.9364 14.4501 56.1262 14.6679 56.2693C14.8857 56.4124 15.1408 56.4839 15.4333 56.4839C15.7381 56.4839 15.9995 56.4093 16.2173 56.2599C16.4413 56.1044 16.6248 55.9053 16.7679 55.6626C16.911 55.4137 17.0168 55.1493 17.0853 54.8693C17.1599 54.5893 17.1973 54.3217 17.1973 54.0666C17.1973 53.7804 17.1568 53.4973 17.0759 53.2173C17.0013 52.9311 16.8893 52.6697 16.7399 52.4333C16.5906 52.1968 16.407 52.0071 16.1893 51.8639C15.9715 51.7208 15.7195 51.6493 15.4333 51.6493C15.1284 51.6493 14.8639 51.7271 14.6399 51.8826C14.4159 52.0319 14.2324 52.2311 14.0893 52.4799C13.9461 52.7226 13.8373 52.9839 13.7626 53.2639C13.6941 53.5439 13.6599 53.8115 13.6599 54.0666Z" fill="white"/>
<path d="M21.9228 57.4266C21.4562 57.4142 21.0455 57.3053 20.6908 57.0999C20.3362 56.8946 20.0406 56.6271 19.8042 56.2973C19.5677 55.9613 19.3873 55.6004 19.2628 55.2146C19.1446 54.8226 19.0855 54.4399 19.0855 54.0666C19.0855 53.6684 19.1508 53.2702 19.2815 52.8719C19.4122 52.4737 19.6019 52.1128 19.8508 51.7893C20.0997 51.4595 20.3984 51.1982 20.7468 51.0053C21.0953 50.8062 21.4873 50.7066 21.9228 50.7066C22.3895 50.7066 22.7971 50.8124 23.1455 51.0239C23.5002 51.2355 23.7957 51.5093 24.0322 51.8453C24.2686 52.1813 24.4459 52.5453 24.5642 52.9373C24.6886 53.3293 24.7508 53.7057 24.7508 54.0666C24.7508 54.4711 24.6855 54.8724 24.5548 55.2706C24.4242 55.6626 24.2344 56.0204 23.9855 56.3439C23.7366 56.6675 23.4379 56.9288 23.0895 57.1279C22.7473 57.3208 22.3584 57.4204 21.9228 57.4266ZM20.1495 54.0666C20.1619 54.3528 20.2024 54.6391 20.2708 54.9253C20.3455 55.2053 20.4575 55.4635 20.6068 55.6999C20.7562 55.9364 20.9397 56.1262 21.1575 56.2693C21.3753 56.4124 21.6304 56.4839 21.9228 56.4839C22.2277 56.4839 22.4891 56.4093 22.7068 56.2599C22.9308 56.1044 23.1144 55.9053 23.2575 55.6626C23.4006 55.4137 23.5064 55.1493 23.5748 54.8693C23.6495 54.5893 23.6868 54.3217 23.6868 54.0666C23.6868 53.7804 23.6464 53.4973 23.5655 53.2173C23.4908 52.9311 23.3788 52.6697 23.2295 52.4333C23.0802 52.1968 22.8966 52.0071 22.6788 51.8639C22.4611 51.7208 22.2091 51.6493 21.9228 51.6493C21.6179 51.6493 21.3535 51.7271 21.1295 51.8826C20.9055 52.0319 20.7219 52.2311 20.5788 52.4799C20.4357 52.7226 20.3268 52.9839 20.2522 53.2639C20.1837 53.5439 20.1495 53.8115 20.1495 54.0666Z" fill="white"/>
<path d="M26.9938 53.3853C26.72 53.3853 26.468 53.3231 26.2378 53.1986C26.0138 53.0742 25.8333 52.9093 25.6964 52.7039C25.5658 52.4924 25.5004 52.2591 25.5004 52.0039C25.5004 51.7426 25.5658 51.5093 25.6964 51.3039C25.8333 51.0924 26.0138 50.9244 26.2378 50.7999C26.468 50.6755 26.72 50.6133 26.9938 50.6133C27.2675 50.6133 27.5164 50.6755 27.7404 50.7999C27.9644 50.9244 28.1418 51.0924 28.2724 51.3039C28.4031 51.5093 28.4684 51.7395 28.4684 51.9946C28.4684 52.2497 28.4031 52.4831 28.2724 52.6946C28.1418 52.9062 27.9644 53.0742 27.7404 53.1986C27.5164 53.3231 27.2675 53.3853 26.9938 53.3853ZM26.9844 52.8533C27.1275 52.8533 27.2551 52.8159 27.3671 52.7413C27.4853 52.6604 27.5755 52.5546 27.6378 52.4239C27.7062 52.2933 27.7404 52.1533 27.7404 52.0039C27.7404 51.8422 27.7062 51.6959 27.6378 51.5653C27.5693 51.4346 27.476 51.3319 27.3578 51.2573C27.2458 51.1826 27.1244 51.1453 26.9938 51.1453C26.8506 51.1453 26.72 51.1857 26.6018 51.2666C26.4898 51.3413 26.3995 51.4439 26.3311 51.5746C26.2626 51.7053 26.2284 51.8453 26.2284 51.9946C26.2284 52.1564 26.2626 52.3026 26.3311 52.4333C26.4058 52.5577 26.4991 52.6604 26.6111 52.7413C26.7293 52.8159 26.8538 52.8533 26.9844 52.8533ZM30.4191 57.4266C30.1453 57.4266 29.8964 57.3644 29.6724 57.2399C29.4484 57.1155 29.268 56.9475 29.1311 56.7359C29.0004 56.5244 28.9351 56.2911 28.9351 56.0359C28.9351 55.7808 29.0004 55.5506 29.1311 55.3453C29.268 55.1337 29.4484 54.9657 29.6724 54.8413C29.8964 54.7168 30.1453 54.6546 30.4191 54.6546C30.6991 54.6546 30.9511 54.7168 31.1751 54.8413C31.3991 54.9595 31.5764 55.1244 31.7071 55.3359C31.8378 55.5475 31.9031 55.7808 31.9031 56.0359C31.9031 56.2911 31.8378 56.5244 31.7071 56.7359C31.5764 56.9475 31.3991 57.1155 31.1751 57.2399C30.9511 57.3644 30.6991 57.4266 30.4191 57.4266ZM30.4191 56.8946C30.5622 56.8946 30.6898 56.8542 30.8018 56.7733C30.92 56.6924 31.0102 56.5897 31.0724 56.4653C31.1409 56.3346 31.1751 56.1946 31.1751 56.0453C31.1751 55.8835 31.1409 55.7373 31.0724 55.6066C31.004 55.4759 30.9106 55.3733 30.7924 55.2986C30.6804 55.2239 30.556 55.1866 30.4191 55.1866C30.2822 55.1866 30.1546 55.2271 30.0364 55.3079C29.9244 55.3826 29.8342 55.4853 29.7658 55.6159C29.6973 55.7466 29.6631 55.8866 29.6631 56.0359C29.6631 56.1915 29.6973 56.3346 29.7658 56.4653C29.8404 56.5959 29.9338 56.7017 30.0458 56.7826C30.1578 56.8573 30.2822 56.8946 30.4191 56.8946ZM25.9204 56.9599L28.5431 53.8519L31.0071 50.6506L31.4924 51.0706L28.9164 54.1413L26.3964 57.3893L25.9204 56.9599Z" fill="white"/>
</svg>
