<svg width="58" height="72" viewBox="0 0 58 72" fill="none" xmlns="http://www.w3.org/2000/svg">
<path fill-rule="evenodd" clip-rule="evenodd" d="M48.9751 12.2448C56.1053 23.6556 53.3183 38.4527 42.9419 46.5532C42.2273 47.1112 41.4766 47.6373 40.6907 48.1284C39.9055 48.619 39.1043 49.0627 38.2904 49.4602C26.4606 55.237 11.9378 51.2555 4.80714 39.844C-2.81417 27.6474 0.894872 11.5818 13.0915 3.96046C25.2881 -3.66085 41.3538 0.0481922 48.9751 12.2448ZM8.87524 37.302C2.65786 27.3521 5.68365 14.2459 15.6335 8.02856C25.5834 1.81118 38.6896 4.83697 44.907 14.7869C47.1976 18.4526 48.2336 22.5468 48.1309 26.5671C48.1096 27.4021 48.0392 28.234 47.9206 29.0582C47.8496 29.5519 47.7614 30.0428 47.6561 30.53C47.1127 33.0446 46.1156 35.4598 44.6955 37.6428C43.0592 40.1583 40.8612 42.3653 38.1487 44.0603C36.1856 45.2869 34.0997 46.1538 31.9681 46.6787C27.7379 47.7203 23.3276 47.4151 19.3402 45.9024C15.1528 44.3137 11.4317 41.3931 8.87524 37.302Z" fill="#B7805C"/>
<path d="M55.2166 71.3747C53.2908 72.578 50.7541 71.9924 49.5508 70.0666L41.7283 57.548C41.4356 57.0797 41.5781 56.4627 42.0464 56.1701L42.3607 55.9737L47.0099 53.0685L47.3242 52.8721C47.7926 52.5795 48.4095 52.7219 48.7022 53.1903L56.5246 65.7088C57.728 67.6346 57.1424 70.1713 55.2166 71.3747Z" fill="#CC9F7A"/>
<path d="M47.0099 53.0685L43.0153 46.6758L42.9419 46.5532C42.2273 47.1112 41.4766 47.6373 40.6907 48.1284C39.9055 48.619 39.1043 49.0627 38.2904 49.4602L38.3661 49.581L42.3607 55.9737L47.0099 53.0685Z" fill="#B7805C"/>
<path fill-rule="evenodd" clip-rule="evenodd" d="M19.2623 30.53H14.6341C14.3646 30.53 14.1437 30.3166 14.1344 30.0473L14.0703 28.1963C14.0648 28.0373 14.1353 27.8851 14.2602 27.7865L31.9681 13.8101L48.1309 26.5671C48.2336 22.5468 47.1976 18.4526 44.907 14.7869C38.6896 4.83697 25.5834 1.81118 15.6335 8.02856C5.68365 14.2459 2.65786 27.3521 8.87524 37.302C11.4317 41.3931 15.1528 44.3137 19.3402 45.9024L19.2623 30.53Z" fill="#C3FFFF"/>
<path fill-rule="evenodd" clip-rule="evenodd" d="M44.6955 37.6428V30.53H47.6561C47.1127 33.0446 46.1156 35.4598 44.6955 37.6428Z" fill="#C3FFFF"/>
<path fill-rule="evenodd" clip-rule="evenodd" d="M19.242 28.5132L31.8626 18.5554C31.8936 18.5309 31.9308 18.5187 31.9681 18.5185V29.447L26.413 29.447C26.3184 29.447 26.2417 29.5237 26.2417 29.6184V41.2443C26.2417 41.3389 26.3184 41.4156 26.413 41.4156H31.6334H31.9681V46.6787C27.7379 47.7203 23.3276 47.4151 19.3402 45.9024L19.2623 30.53L19.242 28.5132Z" fill="#FFD59B"/>
<path d="M44.6955 28.5134L32.0749 18.5554C32.0436 18.5307 32.0058 18.5184 31.9681 18.5185V29.447L32.3 29.4469L37.5245 29.4469C37.6191 29.4469 37.6958 29.5236 37.6958 29.6182V35.1V41.2443C37.6958 41.3389 37.6191 41.4156 37.5245 41.4156H31.9681V46.6787C34.0997 46.1538 36.1856 45.2869 38.1487 44.0603C40.8612 42.3653 43.0592 40.1583 44.6955 37.6428V30.53V28.5134Z" fill="#FFE39E"/>
<path fill-rule="evenodd" clip-rule="evenodd" d="M31.9681 13.8101V18.5185C32.0058 18.5184 32.0436 18.5307 32.0749 18.5554L44.6955 28.5134V30.53H47.6561C47.7614 30.0428 47.8496 29.5519 47.9206 29.0582C48.0392 28.234 48.1096 27.4021 48.1309 26.5671L31.9681 13.8101Z" fill="#CC9F7A"/>
<path d="M19.242 28.5132L31.8626 18.5554C31.8936 18.5309 31.9308 18.5187 31.9681 18.5185V13.8101L14.2602 27.7865C14.1353 27.8851 14.0648 28.0373 14.0703 28.1963L14.1344 30.0473C14.1437 30.3166 14.3646 30.53 14.6341 30.53H19.2623L19.242 28.5132Z" fill="#B7805C"/>
<path d="M26.2417 29.6184V41.2443C26.2417 41.3389 26.3184 41.4156 26.413 41.4156H31.6334H31.9681V29.447L26.413 29.447C26.3184 29.447 26.2417 29.5237 26.2417 29.6184Z" fill="#BDDCEB"/>
<path d="M37.5245 41.4156C37.6191 41.4156 37.6958 41.3389 37.6958 41.2443V35.1V29.6182C37.6958 29.5236 37.6191 29.4469 37.5245 29.4469L32.3 29.4469L31.9681 29.447V41.4156H37.5245Z" fill="#CDEAF9"/>
</svg>
