<svg width="60" height="72" viewBox="0 0 60 72" fill="none" xmlns="http://www.w3.org/2000/svg">
<path d="M12.5455 34.9091H0L30 72L12.5455 34.9091Z" fill="#47C1D4"/>
<path d="M30 34.9091H12.5455L30 72V34.9091Z" fill="#47E7FF"/>
<path d="M47.4545 34.9091H30V72L47.4545 34.9091Z" fill="#C3FFFF"/>
<path d="M60 34.9091H47.4545L30 72L60 34.9091Z" fill="#BDDCEB"/>
<path d="M47.4545 22.3636V34.9091H60L47.4545 22.3636Z" fill="#C3FFFF"/>
<path d="M47.4545 22.3636H30L47.4545 34.9091V22.3636Z" fill="#BDDCEB"/>
<path d="M30 22.3636V34.9091H47.4545L30 22.3636Z" fill="#47E7FF"/>
<path d="M30 34.9091V22.3636L12.5455 34.9091H30Z" fill="#C3FFFF"/>
<path d="M30 22.3636H12.5455V34.9091L30 22.3636Z" fill="#47C1D4"/>
<path d="M12.5455 34.9091V22.3636L0 34.9091H12.5455Z" fill="#BDDCEB"/>
<path d="M30 0L24.251 8.24628C23.7888 8.90923 24.3003 9.94625 24.9133 10.4729C25.5122 10.9875 25.893 11.7599 25.893 12.6234C25.893 14.1726 24.6672 15.4286 23.1551 15.4286C21.6429 15.4286 20.4171 14.1726 20.4171 12.6234V11.1431C20.4171 10.7614 20.1999 10.413 19.8571 10.2451L12.5455 6.66234L14.9412 19.6364H30V9.11688C29.2439 9.11688 28.631 8.48892 28.631 7.71429C28.631 6.93965 29.2439 6.31169 30 6.31169V0Z" fill="#FFD59B"/>
<path d="M35.0867 10.4729C35.6997 9.94625 36.2112 8.90923 35.749 8.24628L30 0V6.31169C30.7561 6.31169 31.369 6.93965 31.369 7.71429C31.369 8.48892 30.7561 9.11688 30 9.11688V19.6364H45.0588L47.4545 6.66234L40.1429 10.2451C39.8001 10.413 39.5829 10.7614 39.5829 11.1431V12.6234C39.5829 14.1726 38.3571 15.4286 36.8449 15.4286C35.3328 15.4286 34.107 14.1726 34.107 12.6234C34.107 11.7599 34.4878 10.9875 35.0867 10.4729Z" fill="#FFE39E"/>
<path d="M30 9.11688C30.7561 9.11688 31.369 8.48892 31.369 7.71429C31.369 6.93965 30.7561 6.31169 30 6.31169C29.2439 6.31169 28.631 6.93965 28.631 7.71429C28.631 8.48892 29.2439 9.11688 30 9.11688Z" fill="#C3FFFF"/>
</svg>
