<svg width="60" height="72" viewBox="0 0 60 72" fill="none" xmlns="http://www.w3.org/2000/svg">
<path d="M30 54.3529C23.1441 54.3529 17.5862 48.6337 17.5862 41.5788V34.6667C17.5862 32.9564 20.0621 30.3529 21.7241 30.3529L21.7241 26.8691C21.7241 22.1657 25.4294 18.3529 30 18.3529L30.0001 4.94118L4.13804 14.4706C4.13804 14.4706 4.13779 22.5882 4.13804 36.7059C4.13829 50.8235 14.4831 62.4706 30.0001 67.0588L30 54.3529Z" fill="#FFD59B"/>
<path fill-rule="evenodd" clip-rule="evenodd" d="M0.000129576 11.0455C0.000129576 11.0455 -0.00016197 20.4545 0.000129576 36.8182C0.000421123 53.1818 12.0003 66.6818 29.9999 72C47.9995 66.6818 59.9996 53.1818 59.9999 36.8182C60.0002 20.4545 59.9999 11.0455 59.9999 11.0455L29.9999 0L0.000129576 11.0455ZM4.13804 36.7059C4.13779 22.5882 4.13804 14.4706 4.13804 14.4706L30.0001 4.94118L55.8624 14.4706C55.8624 14.4706 55.8626 22.5882 55.8624 36.7059C55.8621 50.8235 45.5171 62.4706 30.0001 67.0588C14.4831 62.4706 4.13829 50.8235 4.13804 36.7059Z" fill="#CC9F7A"/>
<path d="M30 21.6667C27.0914 21.6667 25.3333 23.6736 25.3333 26.6667V30.3333L30 30.3529L30 21.6667Z" fill="#FFD59B"/>
<path d="M34.6667 26.6667C34.6667 23.6736 32.9086 21.6667 30 21.6667L30 30.3529L34.6667 30.3529V26.6667Z" fill="#FFE39E"/>
<path d="M42.4138 41.5788C42.4138 48.6337 36.856 54.3529 30 54.3529L30.0001 67.0588C45.5171 62.4706 55.8621 50.8235 55.8624 36.7059C55.8626 22.5882 55.8624 14.4706 55.8624 14.4706L30.0001 4.94118L30 18.3529C34.5706 18.3529 38.2759 22.1657 38.2759 26.8691L38.2759 30.3529C39.9379 30.3529 42.4138 32.9564 42.4138 34.6667V38.1227L42.4138 41.5788Z" fill="#FFE39E"/>
<path d="M26.9906 41.5788C26.9906 39.8684 28.338 38.482 30 38.482C31.6621 38.482 33.0094 39.8684 33.0094 41.5788C33.0094 42.725 32.4042 43.7258 31.5047 44.2612V46.9981C31.5047 47.8533 30.831 48.5465 30 48.5465C29.169 48.5465 28.4953 47.8533 28.4953 46.9981V44.2612C27.5958 43.7258 26.9906 42.725 26.9906 41.5788Z" fill="#FFD59B"/>
<path fill-rule="evenodd" clip-rule="evenodd" d="M30 54.3529C23.1441 54.3529 17.5862 48.6337 17.5862 41.5788V34.6667C17.5862 32.9564 20.0621 30.3529 21.7241 30.3529L21.7241 26.8691C21.7241 22.1657 25.4294 18.3529 30 18.3529L30 21.6667C27.0914 21.6667 25.3333 23.6736 25.3333 26.6667V30.3333L30 30.3529V38.482C28.338 38.482 26.9906 39.8684 26.9906 41.5788C26.9906 42.725 27.5958 43.7258 28.4953 44.2612V46.9981C28.4953 47.8533 29.169 48.5465 30 48.5465V54.3529Z" fill="#8F664B"/>
<path d="M30 38.482C31.6621 38.482 33.0094 39.8684 33.0094 41.5788C33.0094 42.725 32.4042 43.7258 31.5047 44.2612V46.9981C31.5047 47.8533 30.831 48.5465 30 48.5465V54.3529C36.856 54.3529 42.4138 48.6337 42.4138 41.5788L42.4138 38.1227V34.6667C42.4138 32.9564 39.9379 30.3529 38.2759 30.3529L38.2759 26.8691C38.2759 22.1657 34.5706 18.3529 30 18.3529L30 21.6667C32.9086 21.6667 34.6667 23.6736 34.6667 26.6667V30.3529L30 30.3529V38.482Z" fill="#B7805C"/>
</svg>
